<svg height="478.44489" viewBox="0 0 5229.1888 4784.4489" width="522.91888" xmlns="http://www.w3.org/2000/svg"><g transform="translate(-2511.9907 -2752.7444)"><g fill="#0c2743"><path d="m6485 7527c-22-8-59-24-83-36s-114-51-200-85c-86-35-197-81-247-103-49-22-218-90-375-152s-323-128-370-148c-47-19-89-35-95-35-5 0-39 12-75 27s-150 62-255 105c-168 70-438 185-860 369l-130 56h-110c-99 0-116-3-168-27-78-37-154-116-200-209-45-91-56-142-57-242v-78l-72 6c-40 4-100 11-133 16-92 14-216 11-266-6-142-48-257-218-275-405-21-219 125-429 326-469 168-33 213-43 290-61 47-11 139-27 204-35 66-9 123-18 127-21 4-2 15-39 24-81 26-118 68-197 150-279 72-72 116-94 192-94 15 0 116 35 223 79 107 43 208 81 223 85 27 6 27 6 16-16-6-13-34-54-61-92-86-119-164-296-188-427-18-98-14-279 9-392 29-138 62-230 145-402 79-164 149-280 327-540 140-206 213-329 279-470 87-187 93-214 95-422 0-100 3-185 7-188 34-34 379 324 539 560 29 44 77 112 105 150 50 70 112 170 357 574 148 246 237 445 282 631 34 138 46 376 25 494-15 89-71 242-117 321-33 57-140 195-173 223-42 36 189-47 379-135 89-42 144-46 214-15 108 48 188 149 242 308 19 55 40 102 47 106 7 3 49 11 93 18 83 12 214 44 325 80 36 12 108 29 162 40 106 21 142 36 206 87 157 127 201 391 96 582-82 152-223 232-384 218-78-7-245-25-281-31-25-5-25-5-21 56 13 182-113 403-275 480-73 35-176 45-238 25zm-2756-187c22-11 48-35 60-53 28-46 27-59-2-16-30 44-60 58-127 60-55 1-55 1-25 14 40 19 49 18 94-5zm2901-1c10-5-2-8-33-9-53 0-77-10-122-49l-30-26 30 34c58 65 102 79 155 50zm-185-183c0-93 1-94 40-152 22-31 57-70 79-86 33-24 48-28 105-28 43 0 75 5 91 16 14 8 9 2-10-16-44-39-71-46-122-30-51 15-136 94-166 153-33 67-46 144-33 195 7 23 13 42 14 42s2-42 2-94zm-2618-8c-2-13-4-5-4 17-1 22 1 32 4 23 2-10 2-28 0-40zm275 24c-19-6-15-69 6-76 9-3 49-16 87-30 63-22 66-25 35-25-67-2-104-51-98-132 3-44 3-44 78-81 41-20 152-71 245-113 94-43 203-92 244-111 56-26 86-34 131-34 51 0 61 3 79 26 29 37 29 112 0 148-23 29-89 65-184 101-61 24-206 91-170 79 11-4 41-9 67-11 36-4 47-2 50 10 2 12 17 9 78-18 41-18 120-51 175-74 169-71 185-78 345-147 85-37 180-77 210-90s49-24 43-24c-8 0-13-13-13-33 0-33 2-35 78-65 57-23 70-31 49-31-36-1-84-26-97-50-5-11-10-45-10-75 0-70 8-77 132-126 51-21 142-60 202-89 184-87 246-69 246 70 0 63-2 69-29 89-16 11-45 27-63 35l-33 14 33 1c27 0 32 4 32 25 0 14 5 25 10 25 6 0 10-17 10-38 0-39 1-39 78-75 43-21 92-37 110-37 27 0 32 4 32 25 0 14 2 25 5 25 11 0 136-51 208-84l77-37v-39c0-29 4-40 15-40 44 0-20-159-102-256l-63-73-52 18c-29 10-102 40-163 66-177 76-424 171-654 252-117 41-284 104-370 140-400 167-996 398-1155 448-226 71-208 55-140 128 92 97 133 196 149 359l6 57 32-11c17-7 26-13 19-16zm-452-13c14-24 5-66-17-91-36-40-61 42-27 90 19 28 30 28 44 1zm3017-25c12-19 14-30 7-42-17-26-29-24-47 7-31 53 6 86 40 35zm-396-229c22-44 55-88 93-126 42-41 56-60 45-63-8-3-85-30-172-60l-158-54-40 22c-29 16-39 27-39 47 0 15-15 43-36 68-20 23-34 44-32 46 3 3 49 23 103 45 55 22 109 50 122 62 42 40 21 143-36 176l-30 17 57 21 57 22 17-78c9-42 31-107 49-145zm-2822 148c-1-56-2-63-10-38-8 26-2 105 7 105 2 0 4-30 3-67zm3358-40c-2-21-4-6-4 32 0 39 2 55 4 38 2-18 2-50 0-70zm-944 7c7-1-14-12-47-25-32-14-62-22-67-19-22 13-5 33 44 51 42 17 53 18 55 7 2-8 9-14 15-14zm-2248-161c-51-24-54-23-88 4l-28 22 78-4 78-4zm-651-53c19-8 37-19 40-25 4-6-9-4-28 4-20 8-57 15-83 16-36 0-43 3-28 9 30 13 62 12 99-4zm4416 4c23-7 22-8-11-9-20-1-52-3-70-6l-34-5 30 14c33 17 48 18 85 6zm-414-375c20-87 36-119 85-170 21-22 39-43 39-46s-51-18-112-33c-62-15-123-30-135-33-22-5-23-3-23 66v71l-77 38-77 39 38 24c33 22 37 27 33 59-3 19-8 45-12 56-6 20 0 24 59 44 63 21 66 23 66 53 0 24 8 38 31 56 17 14 36 36 42 50 9 22 12 7 18-89 5-63 15-146 25-185zm203 148c-1-87-1-88-14-47-10 31-10 54-3 88 5 25 12 46 14 46s4-39 3-87zm-4081-56c-5-27-11-47-12-45s0 41 3 88c4 74 5 80 12 45 4-22 3-62-3-88zm-168 34c-12-46-32-60-56-40-18 15-13 59 12 97 16 24 16 24 36 5 17-18 18-25 8-62zm4474 36c11-29-2-83-19-81-6 1-16 12-24 26-12 21-12 30-1 57 15 37 31 36 44-2zm-4049-37c54-21 254-62 344-71 52-6 106-16 119-23l26-13-25-8c-13-4-42-16-64-26s-98-41-170-69c-71-29-136-59-142-68-7-9-13-38-13-65 0-46-1-49-22-43-13 3-61 13-108 22s-90 17-97 19c-8 3 0 22 22 54 46 69 75 153 82 233 3 38 9 68 14 68 4 0 19-4 34-10zm2550-136 90-36-3-38-4-39-56 26c-32 13-73 31-92 38-81 30-145 64-122 64 17 1 22 7 22 26v25l38-15c20-9 78-32 127-51zm1485-92c60 2 68 1 53-10-44-32-122-22-159 19l-19 22 27-17c21-14 43-17 98-14zm-4410 3c0-2-17-13-39-24-31-17-45-18-74-10-55 15-55 29 0 23 39-4 65-1 111 15 1 1 2-1 2-4zm1370-21c36-14 92-37 125-51s113-47 177-74c185-75 188-63-40-149-226-84-578-222-701-273l-85-36-28 21c-16 11-41 39-55 62-36 57-93 219-93 265v38l128 50c70 28 165 65 212 84 88 34 254 87 280 88 8 1 44-11 80-25zm887-435c101-13 269-71 358-122 96-56 258-218 315-317 52-89 102-204 121-280 20-80 18-295-4-397-21-98-145-394-214-513-27-47-82-136-121-198-40-62-72-115-72-118s-20-30-45-58c-25-29-45-57-45-63 0-5-50-87-110-182-102-159-323-451-342-451-4 0-8 8-8 19 0 28-77 246-110 310-16 31-50 91-77 133-26 42-60 98-75 125-33 58-135 208-216 318-85 115-176 270-253 430-118 246-147 444-94 645 51 187 117 309 240 439 120 127 201 180 368 243 124 46 238 57 384 37z"/><path d="m5048 5510c-75-22-143-108-179-226-22-71-23-73-48-66-14 4-71 7-126 6-110-1-169-20-215-69-22-23-25-38-29-110-3-72 0-91 22-137 13-30 39-70 56-91l33-37-35-42c-64-80-91-145-92-223 0-85 21-122 93-157 41-20 65-23 184-26l138-4 10-36c5-21 10-42 10-48 0-16 74-127 101-153 67-64 182-81 265-41 54 27 106 102 134 196l21 72 127 4c107 3 135 7 174 27 62 30 94 69 102 126 12 76-9 147-65 220-27 35-49 69-49 76 0 6 14 27 31 47 55 62 79 127 79 212 0 142-55 179-272 188l-127 4-7 32c-10 50-52 147-80 188-36 51-95 78-170 77-32 0-71-4-86-9zm129-251c39-78 40-89 8-89-15 0-39-7-55-15-27-14-33-14-61 0-24 13-29 20-23 38 18 60 71 140 88 134 6-2 25-32 43-68zm-357-224c14-8 13-65-1-65-6 0-31-14-56-30-42-29-47-30-63-15-25 22-53 83-46 100 2 7 15 16 28 18 28 7 124 1 138-8zm716 4c67-17 67-25 7-92l-32-37-40 26c-29 20-41 35-46 62-10 53 20 64 111 41zm-775-438c22-17 44-31 49-33 4-2 12-20 15-41l7-38-63 7c-67 7-129 27-129 42 0 9 68 92 76 92 2 0 22-13 45-29zm804-17c37-49 41-59 26-69-15-8-172-28-178-22-3 4-2 22 1 42 6 28 16 42 54 65 26 16 50 30 54 30s23-21 43-46zm-398-201c46-19 46-21 17-87-7-17-23-42-34-56l-20-25-26 30c-30 35-67 105-61 112 7 6 71 42 77 42 3 1 24-7 47-16z"/></g><g fill="#bc533c"><path d="m4005 7232c24-121-26-294-116-395l-37-43 63-16c67-18 272-96 333-127 20-10 98-42 172-70s176-67 225-85c50-19 110-41 135-49 73-24 222-88 262-114 25-15 53-23 83-23 53 0 88-16 129-58 21-23 41-32 80-37 30-4 70-19 97-36 25-16 57-29 70-29s53-14 88-30c69-33 225-94 356-140 44-15 106-39 139-54 65-29 200-83 291-116 33-12 75-30 94-41l33-20 34 38c38 43 64 94 93 182 27 78 27 111 1 118-11 3-18 9-15 13s2 22-1 39c-6 28-16 36-83 67-42 20-125 55-186 78-224 87-754 305-1045 430-85 37-175 75-200 86-99 42-240 101-340 143-58 24-123 50-145 56-38 12-209 85-320 137-27 13-106 48-173 78l-124 55zm274-138c71-25 138-52 148-59 9-7-46 9-122 35-164 55-197 68-173 69 9 1 75-20 147-45zm317-126c24-12 42-23 41-25-9-8-177 60-177 71 0 7 92-24 136-46zm-305 23c30-11 119-49 199-86s172-77 205-90c135-51 205-100 205-145 0-10-9-29-21-44-26-34-64-34-129-1-27 14-71 34-97 44-92 36-468 213-482 226-18 18-7 60 24 91 29 29 28 29 96 5zm1349-487c23-9 39-18 37-20-2-3-24 4-48 15-54 24-45 27 11 5zm77-123c38-17 122-53 187-81 158-68 176-81 176-129 0-43-31-91-59-91-10 0-67 23-127 51-60 29-151 68-202 89-51 20-102 44-113 53-36 31-21 95 29 121 36 20 32 20 109-13zm467-93c77-44 63-47-20-4-38 19-62 35-52 36 9 0 41-14 72-32z"/><path d="m6209 7240c-9-5-52-24-95-41-44-17-106-44-139-59s-100-42-150-60c-49-18-108-42-129-52l-39-20 31-30c18-16 32-36 32-44 0-7 2-14 4-14 9 0 301 110 323 122 30 15 70-11 90-60 15-36 15-37-13-62-16-14-86-47-156-75-70-27-128-53-128-57s9-9 20-13c10-3 40-29 65-57 42-47 44-52 28-64-10-7-29-14-43-14-16-1 1-10 45-25 39-13 71-24 73-25 1 0 2 13 2 30 0 35 13 43 155 93 83 30 199 75 214 84 2 1-12 18-31 37-60 62-114 199-137 346-1 2-6-1-13-8s-18-12-25-12c-8 0-72-23-144-51-72-27-136-48-142-46-12 4 152 87 172 87 22 0 147 53 159 68 23 30 6 43-29 22z"/><path d="m6984 6820c-36-23-125-104-104-95 8 4-1-8-21-27-45-42-62-71-48-85 7-7-16-19-70-38-45-16-81-33-81-39s12-29 25-51l24-39-27-18c-35-24-81-46-107-50-13-3 20-23 98-60 76-37 117-62 117-72 0-20-3-21 115 10 55 15 117 30 138 33l38 6-19 21c-50 53-84 176-86 314-1 86 2 100 26 147 31 58 26 71-18 43z"/><path d="m3215 6812c4-9 10-25 12-34 8-28 21-21 15 7-4 21 0 25 19 25 30 0 22 6-20 14-29 5-32 4-26-12z"/><path d="m3270 6573c0-74-23-162-59-229l-28-52 53-11c29-7 75-23 101-37 26-13 54-24 61-24 6 0 12-11 12-25 0-18-5-25-20-25-27 0-25-26 3-34 52-14 57-9 57 47 0 29 6 60 13 69 6 9 71 39 142 67 72 29 139 56 150 61s50 22 88 39c37 16 67 32 67 35s-23 17-51 32c-36 18-74 27-123 31-39 3-130 18-203 34-114 25-166 40-245 74-16 6-18 0-18-52z"/><path d="m4140 6346c-58-18-143-47-190-65-280-110-335-133-342-144-14-21 4-128 34-217 28-79 73-170 85-170 2 0 35 13 71 29 37 16 119 47 182 69s176 64 250 92c146 56 204 73 292 84 51 7 57 5 60-12 3-18 12-16 128 28 120 45 170 69 170 80 0 7-115 61-230 109-52 21-124 51-160 66s-96 40-135 56c-38 16-79 29-90 28s-67-16-125-33z"/><path d="m4950 5910c-60-8-188-53-272-96-74-37-151-99-233-185-117-124-188-249-234-416l-20-73h25c17 0 24 5 24 20 0 32 67 198 105 263 19 32 35 63 35 68s5 9 10 9c6 0 14 8 17 17 4 10 20 28 35 41s28 30 28 38 6 14 13 14c6 0 34 23 60 50 27 28 52 50 57 50s13 6 17 14c10 17 176 96 268 127 62 21 87 24 230 24 159-1 161-1 270-39 180-62 286-130 403-258 19-21 41-38 48-38 8 0 14-7 14-15 0-21 42-85 56-85 7 0 14-12 17-27 3-16 22-66 42-112 42-94 64-176 65-238 0-37 3-43 21-43 21 0 21 3 15 68-13 126-54 242-136 382-57 99-219 261-315 317-89 51-257 109-358 122-87 12-223 12-307 1z"/><path d="m5070 5665v-35h80 80v35 35h-80-80z"/><path d="m4940 5655c0-33 2-35 35-35s35 2 35 35-2 35-35 35-35-2-35-35z"/><path d="m5240 5657v-32l85-20c47-10 85-23 85-27s9-8 20-8 20-4 20-10c0-5 16-10 35-10 33 0 35 2 35 35 0 28-4 35-20 35-11 0-20 5-20 10 0 6-11 10-25 10s-25 4-25 9c0 10-124 41-164 41-23 0-26-4-26-33z"/><path d="m4790 5615c0-33 2-35 35-35s35 2 35 35-2 35-35 35-35-2-35-35z"/><path d="m4620 5550c0-15-7-20-25-20-21 0-25-5-25-30 0-27-3-30-30-30-25 0-38-12-91-82-34-46-71-91-81-101s-18-26-18-36-7-24-15-31-15-28-15-46c0-33 1-34 38-34 45 0 55 9 102 95 18 33 52 85 76 117 26 33 44 67 44 82 0 22 4 26 30 26 23 0 30 4 30 20 0 15 7 20 25 20 22 0 25 4 25 35 0 33-2 35-35 35-28 0-35-4-35-20z"/><path d="m5540 5525c0-28 4-35 20-35 11 0 20-6 20-13 0-21 64-77 88-77 18 0 22-6 22-30 0-28 3-30 35-30 33 0 35 2 35 35 0 31-3 35-25 35-21 0-25 5-25 28 0 32-55 92-83 92-9 0-17 7-17 15 0 10-11 15-35 15-33 0-35-2-35-35z"/><path d="m5060 5505c0-10-11-15-35-15-19 0-35-4-35-10 0-5-7-10-15-10s-15-9-15-20-7-20-15-20-15-7-15-15-4-15-10-15c-5 0-10-13-10-30 0-20-5-30-15-30s-15-10-15-30c0-16-4-30-10-30-5 0-12-15-15-33-6-31-8-32-46-29-30 3-39 1-39-11 0-10 17-19 51-26 29-6 53-10 54-9 1 2 8 26 15 53 35 134 112 235 194 256 56 14 63 39 11 39-24 0-35-5-35-15z"/><path d="m5140 5507c0-8 18-19 39-26 73-21 115-78 162-216 15-44 32-80 38-79s38 2 71 3c53 1 60 3 60 21s-7 20-59 20c-59 0-59 0-66 33-11 49-56 157-66 157-5 0-9 7-9 16s-9 18-20 21-20 12-20 19c0 9-11 14-30 14-20 0-30 5-30 15s-11 15-35 15c-23 0-35-5-35-13z"/><path d="m5080 5340c-16-17-43-65-60-107-31-73-31-77-14-90 16-12 20-11 26 4 3 10 7 28 7 41 1 12 5 22 9 22 5 0 17 19 28 43 24 56 52 81 69 64 7-7 16-23 19-35 4-12 12-22 17-22s9-11 9-24c0-14 7-32 15-40 14-14 14-16-7-20-13-3-35-7-50-11-16-3-28-12-28-20 0-9-10-15-25-15-30 0-33-15-6-30 16-8 28-5 57 15 21 15 51 25 71 25 18 0 36 6 39 13 6 15-49 149-78 190-26 36-62 36-98-3z"/><path d="m5760 5265c0-33 2-35 35-35s35 2 35 35-2 35-35 35-35-2-35-35z"/><path d="m4560 5210c-72-24-110-66-110-120 0-47 24-56 35-12 13 53 80 99 168 116 22 4 37 13 37 21 0 21-62 19-130-5z"/><path d="m5550 5206c0-9 18-18 48-25 77-16 119-38 141-74 43-69 17-170-68-272l-42-50 26-3c31-4 55 13 55 39 0 11 7 19 15 19s15 7 15 15 4 15 8 15c17 0 45 78 49 140 6 79-14 140-46 140-14 0-21 7-21 20 0 15-12 23-52 35-67 19-128 20-128 1z"/><path d="m5820 5115c0-33 2-35 35-35s35 2 35 35-2 35-35 35-35-2-35-35z"/><path d="m5397 5073c-14-4-16-11-12-41 14-83 17-92 32-92 13 0 15 9 10 50-5 40-3 50 8 50 8 0 15 9 15 20 0 20-14 23-53 13z"/><path d="m5500 5060c0-16 7-20 35-20 40 0 49 24 13 34-38 10-48 7-48-14z"/><path d="m4617 5052c-10-11-14-26-10-40 7-27 33-29 33-2 0 11 7 20 15 20s15 9 15 20c0 25-31 27-53 2z"/><path d="m4820 5021c0-45 3-51 21-51s20 5 17 47c-2 36-7 49-20 51-15 3-18-4-18-47z"/><path d="m5840 5049c0-11 5-51 11-90l12-69h33c40 0 40 3 22 110l-12 70h-33c-27 0-33-4-33-21z"/><path d="m5600 5027c0-26-4-37-15-37-10 0-15-11-15-35 0-32-2-35-30-35s-30-3-30-35c0-19 5-35 10-35 6 0 10 4 10 8s22 34 50 67c62 74 68 91 41 118l-21 21z"/><path d="m4175 5010c-9-40 3-90 21-90 10 0 14 15 14 60s-4 60-14 60c-8 0-17-13-21-30z"/><path d="m4960 5008v-32l21 21c22 22 19 43-7 43-9 0-14-11-14-32z"/><path d="m5217 5033c-8-7 41-63 55-63 4 0 8 11 8 25 0 16-6 25-15 25-8 0-15 5-15 10 0 11-23 14-33 3z"/><path d="m4450 4975c0-30 3-35 24-35 23 0 24 2 13 35-6 19-16 35-24 35s-13-13-13-35z"/><path d="m5100 4941c0-14 8-21 28-24l27-4-27-2c-20-1-28-6-28-19 0-15 8-19 43-19 88-1 107-3 107-13 0-5-13-10-30-10h-29l21-36c18-31 20-42 11-75-9-35-8-39 9-39 16 0 17-2 6-14-19-18-58-30-58-17 0 6-11 6-30 1-21-6-38-4-65 10l-35 18v-29c0-19-5-29-15-29-30 0-14-21 31-41 45-19 49-19 91-3 24 10 65 30 90 46 44 28 45 30 40 70-3 22-11 45-19 49-11 8-11 10 0 18 8 4 16 26 18 47 5 36 3 41-28 59-140 82-158 89-158 56z"/><path d="m6030 4901c0-73-32-206-73-306-23-55-43-92-45-83s4 58 12 107c23 134 23 141-17 141h-32l-34-207c-18-115-39-226-47-248s-14-49-14-59c0-22-130-234-160-261-11-10-20-24-20-30 0-7-17-34-38-59s-51-77-68-116c-16-38-32-70-36-70-5 0-8-7-8-15s-4-15-10-15c-5 0-10-11-10-25 0-16-6-25-15-25-8 0-15-7-15-15s-4-15-10-15c-5 0-10-7-10-15s-4-15-10-15c-5 0-10-7-10-15s-4-15-10-15c-5 0-12-11-16-25-3-14-10-25-15-25s-9-6-9-14-7-16-15-20c-8-3-15-15-15-26s-7-20-15-20c-9 0-15-9-15-24 0-18-6-26-21-28-12-2-27-12-33-23s-17-24-23-28c-7-4-13-16-13-26s-9-21-20-24c-12-3-20-14-20-26s-6-21-15-21c-8 0-15-8-15-18 0-9-10-22-22-27-16-7-24-20-26-43-2-17 1-32 7-32 20 0 286 347 391 512 61 95 110 176 110 181 0 6 20 34 45 63 25 28 45 55 45 58s32 56 72 118c126 199 169 279 244 456 73 173 100 268 111 395 6 64 5 67-16 67-18 0-21-6-21-39z"/><path d="m4500 4875c0-19 5-35 10-35 6 0 10-6 10-13 0-8 11-24 25-37 35-33 33-60-5-60-23 0-30-4-30-20 0-11-6-20-14-20-25 0-66-111-66-179 0-34 4-61 10-61s10-9 10-20c0-13 7-20 20-20s20-7 20-20c0-16 7-20 35-20 44 0 44 9 1 37s-70 83-60 126c12 56 64 147 110 193 24 25 44 47 44 50 0 4-22 31-50 61-27 30-50 59-50 64s-4 9-10 9c-5 0-10-16-10-35z"/><path d="m4710 4873v-37l35 34c19 19 35 35 35 37s-16 3-35 3c-34 0-35-1-35-37z"/><path d="m5870 4845c0-33 2-35 35-35s35 2 35 35-2 35-35 35-35-2-35-35z"/><path d="m4180 4858c0-30 13-58 26-58 9 0 14 12 14 35 0 28-4 35-20 35-11 0-20-6-20-12z"/><path d="m4964 4808c4-18 11-34 16-36 13-5 13-29 0-34-6-2-13-20-17-41-5-33-3-37 16-37 16 0 21 6 21 25 0 18 5 25 19 25 17 0 18 3 8 35-6 19-14 35-19 35-4 0-8 14-8 30 0 24-4 30-21 30-19 0-21-4-15-32z"/><path d="m5386 4784c-12-32-6-54 14-54 11 0 20 7 20 15s5 15 12 15c6 0 3 9-7 20-22 24-31 25-39 4z"/><path d="m5631 4748c9-7 37-41 64-76 132-172 65-305-161-320-73-4-84-7-84-23s8-19 52-19c86 0 174 20 223 51 25 16 45 33 45 39 0 7 7 18 15 26 10 11 15 35 15 77 0 76-8 107-26 107-9 0-14 11-14 30 0 20-5 30-15 30-9 0-15 9-15 21s-8 23-20 26c-11 3-20 14-20 24 0 15-7 19-37 19-31 0-34-2-22-12z"/><path d="m4697 4683c-18-18-5-33 30-33s36 0 18 20-36 25-48 13z"/><path d="m5443 4634c-60-39-66-54-23-54 20 0 30 5 30 15 0 9 9 15 25 15 21 0 25 5 25 30 0 17-1 30-2 29-2 0-27-16-55-35z"/><path d="m5550 4626c0-22 5-36 13-36 6 0 17-16 23-35 14-43 9-46-113-52-82-5-93-8-93-24s8-19 48-19c68 0 183 19 199 31 7 6 13 21 13 34 0 22-49 103-75 125-13 11-15 7-15-24z"/><path d="m4810 4585c0-18 5-25 20-25 24 0 28 35 4 44-23 9-24 8-24-19z"/><path d="m4954 4525c-10-39 1-58 26-45 30 16 36 41 15 56-26 20-34 18-41-11z"/><path d="m5202 4351c-7-21-12-46-12-55s-4-16-10-16c-5 0-10-8-10-17 0-20-42-43-79-43-23 0-24-1-6-20 44-48 106-4 143 103 27 75 27 87 4 87-13 0-22-12-30-39z"/><path d="m4590 4350c0-16 7-20 35-20 40 0 49 24 13 34-38 10-48 7-48-14z"/><path d="m4680 4340c0-18 7-20 85-20h86l6-30c4-21 11-30 24-30 22 0 23 10 8 63l-10 37h-99c-93 0-100-1-100-20z"/><path d="m5341 4280c-22-76-63-149-99-177-13-11-10-13 21-13 30 0 37 4 37 20 0 11 7 20 15 20 10 0 15 10 15 30 0 19 5 30 14 30s20 25 31 65c16 57 21 65 41 65 31 0 31 26 2 34-49 13-54 9-77-74z"/><path d="m4900 4205c0-19 5-35 10-35 6 0 10-7 10-15s7-15 15-15 15-7 15-15c0-17 30-55 43-55 5 0 15-7 23-15 17-17 84-21 84-5 0 5-17 18-38 29-46 23-83 60-119 117-16 24-31 44-35 44-5 0-8-16-8-35z"/><path d="m5173 4068c-45-15-43-38 2-38 31 0 35 3 35 25 0 14-1 25-2 24-2-1-18-6-35-11z"/></g><g fill="#ff4c59"><path d="m6300 6799c-25-11-94-38-153-59-104-37-187-81-187-99 0-5 7-14 16-22 11-9 17-10 23-1 8 14 161 86 219 103 23 7 42 16 42 21 0 4 8 8 17 8 35 0 103 35 103 53 0 23-24 21-80-4z"/><path d="m3920 6790c0-16 7-20 35-20 40 0 49 24 13 34-38 10-48 7-48-14z"/><path d="m4040 6756c0-26 17-36 61-36 50 0 34 24-35 50-23 9-26 7-26-14z"/><path d="m4140 6715c0-20 5-25 25-25 14 0 25-4 25-8 0-13 48-32 80-32 60 0 30 27-79 70l-51 20z"/><path d="m4320 6636c0-25 21-36 73-36 42 0 28 22-26 42l-47 18z"/><path d="m4530 6555c0-21 5-25 30-25 17 0 30-4 30-10 0-5 11-10 25-10s25-4 25-10c0-5 16-10 35-10 22 0 35-5 35-13s21-18 51-25c62-15 99-15 99-2 0 11-16 19-105 48-33 10-97 33-142 51l-83 31z"/><path d="m4880 6426c0-24 16-36 51-36 10 0 19-4 19-8 0-9 59-32 82-32 9 0 18-9 21-20 4-15 14-20 41-20 25 0 36 4 36 15 0 8-5 15-10 15-6 0-29 12-51 26-23 14-58 32-78 39s-53 20-73 29c-38 16-38 16-38-8z"/><path d="m5170 6320c0-13 7-20 19-20 10 0 21-7 25-15 3-8 17-15 31-15 20 0 25-5 25-24 0-26 7-29 108-41 35-5 52-11 52-21 0-9 12-14 35-14 19 0 35 3 35 8 0 17-89 60-136 67-39 5-59 14-80 37-53 55-114 75-114 38z"/><path d="m3195 6310c-15-17-14-19 17-25 45-10 162-57 166-67 2-4 10-8 18-8s14-10 14-25c0-31 25-33 34-2 12 44 7 67-14 67-12 0-32 7-45 16-14 9-58 26-99 39-72 22-75 22-91 5z"/><path d="m6953 6308c-79-23-99-48-38-48 19 0 35 4 35 9 0 4 23 11 51 14 59 7 64 10 56 32-8 19-14 18-104-7z"/><path d="m6818 6273c-33-8-20-33 17-33 28 0 35 4 35 20 0 20-14 23-52 13z"/><path d="m5740 6075c0-20 5-25 25-25 14 0 25-4 25-10 0-5 11-10 25-10s25-4 25-10c0-5 11-10 25-10s25-4 25-8c0-10 68-32 99-32 11 0 21-4 21-10 0-5 16-10 35-10 23 0 35-5 35-13 0-15 41-37 70-37 10 0 20-4 22-8 5-12 108-52 134-52 13 0 24-4 24-10 0-5 16-10 35-10s35 5 35 10c0 11-1 12-136 65-51 19-118 47-150 61-33 14-106 43-164 64-58 20-129 47-157 58l-53 22z"/><path d="m4432 6045c-40-7-101-24-135-38-83-33-226-86-377-140-165-59-210-79-210-95 0-25 29-23 97 6 37 17 111 45 163 63s96 36 98 41c2 4 12 8 21 8 22 0 233 78 241 88 6 10 150 42 185 42 18 0 25 5 25 20 0 23-6 23-108 5z"/><path d="m4570 6040c0-11 6-20 14-20s16-4 18-10c2-5 26 1 53 14l50 23-49 6c-76 11-86 9-86-13z"/><path d="m4940 5904c-105-20-293-103-365-161-82-65-184-173-233-247-60-90-121-238-122-293 0-52 16-63 98-63 62 0 92 17 92 53 0 9 8 24 18 34s46 55 80 99c76 102 148 166 234 210 203 103 414 125 613 62 99-31 231-122 306-211 122-146 177-290 214-560 6-46 2-75-51-400-26-163-30-217-13-217 6 0 8 8 5 18-3 9-1 24 4 32 8 12 10 12 10-5 2-69 191 367 216 500 22 114 23 344 2 430-35 140-117 298-209 400-133 148-236 216-424 281-108 37-113 37-280 40-93 1-181 0-195-2zm238-241c-16-2-40-2-55 0-16 2-3 4 27 4s43-2 28-4zm472-198c19-19 32-35 29-35s-20 16-39 35-32 35-29 35 20-16 39-35zm-1130-65c-17-22-34-40-37-40-2 0 10 18 27 40s34 40 37 40c2 0-10-18-27-40zm-82-122c-46-81-66-108-81-108-6 0-3 8 6 18 10 10 17 26 17 35s8 24 18 34 31 35 46 56c16 20 30 37 32 37 1 0-16-33-38-72z"/><path d="m6410 5815c0-21 5-25 30-25 20 0 30-5 30-15 0-9 9-15 25-15 55 0 21 39-60 70-23 9-25 7-25-15z"/><path d="m4960 5013c0-26 0-26 20-8 16 14 17 20 8 27-22 13-28 9-28-19z"/><path d="m4845 4800c-18-19-17-20 3-20 15 0 22 6 22 20 0 11-2 20-3 20-2 0-12-9-22-20z"/></g><g fill="#ffc437"><path d="m3875 6818c-8-5-15-13-15-18 0-11 158-60 194-60 16 0 26-6 26-15 0-10 14-17 40-21 22-4 40-10 40-15s16-9 36-9c57 0 36 21-57 58-147 59-247 89-264 80z"/><path d="m4250 6667c0-26 9-31 169-92 51-19 104-35 117-35s24-4 24-10c0-5 16-10 36-10 45 0 41 20-7 37-47 16-256 97-301 117-38 16-38 16-38-7z"/><path d="m4660 6505c0-22 4-25 36-25 44 0 42 18-4 37-31 13-32 12-32-12z"/><path d="m3370 6247c0-14 7-38 14-54 8-15 17-36 20-45 3-10 12-18 21-18 11 0 15 11 15 39 0 22 3 46 6 55 4 11 1 16-10 16-9 0-28 7-41 16-24 16-25 16-25-9z"/><path d="m5290 6243c0-31 2-33 35-33 43 0 48 25 8 35-15 3-31 12-35 18-4 7-8-2-8-20z"/><path d="m5370 6222c0-16 8-23 35-28 20-3 35-12 35-20 0-9 12-14 35-14 19 0 35 4 35 8 0 13-81 63-112 69-23 5-28 2-28-15z"/><path d="m5520 6160c0-16 7-20 35-20 40 0 49 24 13 34-38 10-48 7-48-14z"/><path d="m4498 6053c-10-2-18-10-18-17 0-14 131-29 157-19 56 22-70 54-139 36z"/><path d="m5980 5980c0-16 7-20 35-20 39 0 46 14 16 30-31 16-51 12-51-10z"/><path d="m4940 5650c-104-22-237-81-316-141-57-44-143-152-194-244-18-33-40-68-48-77-18-22-90-24-116-5-17 12-17 19-6 73 7 32 21 83 32 113 10 29 17 55 15 58-7 6-76-154-91-209-8-29-17-60-20-69-5-12 6-19 48-32 30-10 56-23 59-30 2-7 1-35-4-62-20-126-8-265 44-488 30-129 49-160 169-281 49-49 94-98 100-110 6-11 22-34 35-51 13-16 49-64 80-105s71-91 89-110 49-66 70-105c20-38 54-95 75-125 41-61 109-224 116-279 4-31-3-95-23-234-4-20-2-37 2-37 5 0 43 44 84 97s89 113 105 132c83 96 241 339 286 437 15 33 44 80 63 103 20 24 36 48 36 54s11 22 24 36c40 43 167 254 161 269-3 7 0 22 5 33 6 10 29 128 51 261 45 267 45 294 8 479-38 193-94 311-204 427-93 99-185 162-290 198-73 25-95 28-240 30-88 2-180-1-205-6zm275-183c53-30 96-96 129-200l27-85 32 9c40 11 222-4 268-24 74-30 111-107 90-184-12-45-75-145-115-182-25-24-35-51-17-51 13 0 100-115 121-162 11-24 20-58 20-77 1-111-150-186-326-161-42 5-77 10-80 10-2 0-4-6-4-14s-9-43-20-78c-42-137-126-215-220-206-30 3-65 15-88 31-51 33-119 135-139 209l-17 59-65-6c-88-8-201 8-259 37-54 26-92 77-92 122 0 48 53 149 109 207l51 52-40 43c-63 68-100 152-100 225 0 56 3 64 33 94 38 38 117 65 186 65 41 0 69-5 159-25 17-4 22-1 22 14 0 35 47 151 82 202 61 90 170 123 253 76z"/><path d="m5092 5350c-24-22-66-100-88-162l-13-38 49-25c58-29 77-31 101-9 10 9 39 20 65 25s49 11 51 13c3 2-12 42-32 89-54 126-86 151-133 107z"/><path d="m4643 5065c-53-23-43-74 30-173l40-53 34 34c18 19 51 42 73 53l40 19-4 60c-4 53-7 61-28 66-42 12-152 9-185-6z"/><path d="m5402 5074c-16-4-21-11-18-22 2-9 8-41 11-70 6-43 12-55 33-66 15-8 40-28 56-45 32-34 46-39 46-17 0 8 23 41 50 73 60 69 65 108 17 131-29 14-156 24-195 16z"/><path d="m4960 5008c0-32 0-32 16-10 15 22 12 42-7 42-5 0-9-15-9-32z"/><path d="m5095 4950c-4-6-28-21-54-34-72-37-75-44-76-162 0-57 4-104 9-104s17-6 25-14c9-8 39-24 67-35l52-20 83 42 84 42-2 100-1 100-79 47c-81 49-97 55-108 38zm103-115c52-56 40-125-29-161-41-21-81-10-119 32-48 56-36 112 34 155 40 25 72 18 114-26z"/><path d="m4666 4644c-56-66-79-113-63-132 21-26 72-41 167-48l93-7-5 63c-4 56-8 67-33 85-15 11-46 35-67 53-22 17-43 32-46 32-4-1-25-21-46-46z"/><path d="m5495 4670c-10-11-37-31-60-45-46-26-55-45-55-117v-46l38 4c20 2 69 5 109 8 112 7 130 24 97 89-24 46-87 126-100 127-6 0-19-9-29-20z"/><path d="m4955 4520c-10-44 3-56 31-29 22 21 23 24 7 41-22 25-30 23-38-12z"/><path d="m5079 4426c-20-14-48-28-63-32-14-3-26-10-26-15 0-23 60-137 87-166 38-41 61-41 97-4 23 24 76 142 76 171 0 6-122 70-134 70-1 0-18-11-37-24z"/></g><g fill="#edf6fb"><path d="m3584 7366c-59-28-103-76-147-166-28-56-32-74-32-145 0-67 5-89 28-138 52-105 121-131 222-83 77 36 130 89 167 164 30 60 33 75 33 157 0 77-4 97-26 140-47 92-141 119-245 71zm147-92c80-72 75-185-12-295-55-70-152-91-206-45-25 22-28 31-31 103-6 122 42 232 111 252 46 14 114 7 138-15z"/><path d="m3585 7195c-21-20-25-33-25-88 0-49 4-68 18-80 37-34 82-11 110 56 17 40 15 67-8 105-24 40-60 43-95 7z"/><path d="m6505 7372c-102-62-137-173-100-315 28-107 110-201 204-232 64-21 105-15 159 24 59 43 75 95 70 218-6 128-30 185-105 249-85 73-167 93-228 56zm166-96c20-14 51-46 68-72 28-43 31-55 31-126 0-116-27-158-103-158-46 0-102 42-151 113-35 51-39 63-40 121-1 70 11 91 69 127 41 26 83 24 126-5z"/><path d="m6595 7184c-14-15-25-36-25-48 0-22 35-86 54-98 35-23 96 15 96 61 0 35-28 79-60 96-38 19-37 20-65-11z"/><path d="m2826 6835c-70-29-100-55-131-115-58-114-54-270 9-353 72-94 172-130 253-89 57 29 128 112 150 175 26 75 23 196-6 262-31 69-76 113-135 130-64 19-70 19-140-10zm134-87c53-27 79-68 87-135 12-105-54-230-133-252-65-18-158 28-180 89-29 81-8 224 40 269 26 24 87 50 121 51 12 0 41-10 65-22z"/><path d="m2867 6669c-45-26-64-151-29-182 21-19 54-22 82-7 38 20 54 145 23 172-26 22-55 29-76 17z"/><path d="m7255 6831c-120-54-174-227-116-373 26-66 101-155 148-174 18-8 56-14 86-14 142 0 248 161 217 332-34 187-191 295-335 229zm162-81c49-22 98-90 108-150 9-55-12-144-42-180-78-93-184-75-252 43-67 118-26 272 81 297 50 12 60 11 105-10z"/><path d="m7330 6648c-29-49-27-122 5-153 29-30 49-31 75-5 16 16 20 33 20 80 0 51-4 65-25 85-32 33-51 31-75-7z"/><path d="m3816 6765-58-54 38-16c21-8 110-39 198-66 170-54 759-282 1166-451 85-36 259-101 385-146 127-44 332-122 455-172 276-113 422-170 432-170 13 0 88 71 88 84 0 18-44 40-160 81-58 21-145 55-195 77-49 22-126 52-170 68-117 41-313 119-365 145-25 12-69 28-98 34s-65 20-81 32c-15 11-52 24-82 28-43 6-62 15-93 45-47 45-73 56-133 56-27 0-53 6-63 15-21 19-210 103-275 122-27 8-84 28-125 44s-137 52-214 79c-76 28-159 62-185 75-97 49-364 146-397 145-5-1-35-25-68-55z"/><path d="m6312 6800c-23-11-75-31-115-45-103-37-225-95-231-111-7-19 91-87 118-81 22 6 409 139 414 142 7 6-115 115-128 115-8 0-34-9-58-20z"/><path d="m6913 6296-123-31v-79-78l38 7c83 14 317 76 326 85 7 7-10 30-49 70-33 33-62 60-65 59s-60-15-127-33z"/><path d="m3153 6261c-29-33-53-62-53-65s10-6 23-6c12 0 87-14 167-30s145-30 146-30c0 0-2 20-6 45s-5 45-3 45c1 0-7 10-18 21-24 24-116 64-169 73-33 6-38 3-87-53z"/><path d="m4467 6049c-71-9-92-16-297-94-69-25-179-66-245-90-158-56-217-84-212-98 2-7 23-27 46-45 49-37 44-37 171 15 140 58 459 183 556 218 50 18 109 42 130 53 36 18 37 20 17 30-32 17-91 21-166 11z"/><path d="m4195 5153c-29-74-21-286 16-439 36-153 198-465 341-659 81-110 183-260 216-318 15-27 49-83 75-125 27-42 61-102 77-133 39-76 108-277 116-339 4-28 10-50 15-50s18 19 30 41c18 36 21 61 22 173 2 130 2 131-36 226-22 52-56 120-76 150-21 30-55 87-75 125-21 39-52 86-70 105s-58 69-89 110-67 89-80 105c-13 17-29 39-35 50-5 11-54 65-109 121-54 55-108 120-120 144-25 51-66 222-85 352-9 70-9 108 1 192 7 58 10 114 6 125-4 13-24 26-58 37-29 9-57 19-63 21s-15-4-19-14z"/><path d="m5248 5043c-36-6-35-26 2-53l30-21v25c0 13 3 31 6 40s2 15-2 15c-5-1-21-4-36-6z"/><path d="m4825 4780c-28-29-28-30-9-45 27-20 41-18 48 8 8 32 7 67-2 67-5 0-21-14-37-30z"/><path d="m5385 4764c-3-20-4-38-2-41 3-2 19 3 37 12 26 14 29 19 19 31-7 8-20 19-30 24-14 8-18 4-24-26z"/><path d="m5620 4765c0-8 5-15 10-15 6 0 10 7 10 15s-4 15-10 15c-5 0-10-7-10-15z"/><path d="m5250 4524c-21-21-22-27-10-34 28-18 40-11 40 25 0 19-1 35-3 35s-14-11-27-26z"/></g></g></svg>
